<svg width="17" height="18" viewBox="0 0 17 18" fill="none" xmlns="http://www.w3.org/2000/svg">
<path fill-rule="evenodd" clip-rule="evenodd" d="M7.32784 0.932197C8.06902 0.577939 8.93066 0.577939 9.67184 0.932197C9.99383 1.0861 10.2889 1.33776 10.6974 1.68623C10.7186 1.70432 10.7401 1.72267 10.762 1.74128C10.9604 1.91035 11.0229 1.96234 11.0861 2.00471C11.2469 2.11249 11.4275 2.1873 11.6174 2.22479C11.6921 2.23954 11.773 2.24696 12.0329 2.26769C12.0615 2.26998 12.0896 2.27221 12.1174 2.27442C12.6527 2.31689 13.0393 2.34757 13.3758 2.46643C14.1504 2.74002 14.7597 3.34929 15.0333 4.12388C15.1521 4.46039 15.1828 4.84697 15.2253 5.38226C15.2275 5.41004 15.2297 5.43823 15.232 5.46683C15.2527 5.72667 15.2601 5.80761 15.2749 5.88228C15.3124 6.0722 15.3872 6.2528 15.495 6.4136C15.5373 6.47683 15.5893 6.53931 15.7584 6.73771C15.777 6.75955 15.7954 6.78107 15.8135 6.80228C16.1619 7.21081 16.4136 7.50585 16.5675 7.82784C16.9217 8.56902 16.9217 9.43066 16.5675 10.1718C16.4136 10.4938 16.1619 10.7889 15.8135 11.1974C15.7954 11.2186 15.777 11.2401 15.7584 11.262C15.5893 11.4604 15.5373 11.5229 15.495 11.5861C15.3872 11.7469 15.3124 11.9275 15.2749 12.1174C15.2601 12.1921 15.2527 12.273 15.232 12.5329C15.2297 12.5615 15.2275 12.5896 15.2253 12.6174C15.1828 13.1527 15.1521 13.5393 15.0333 13.8758C14.7597 14.6504 14.1504 15.2597 13.3758 15.5333C13.0393 15.6521 12.6527 15.6828 12.1174 15.7253C12.0896 15.7275 12.0615 15.7297 12.0329 15.732C11.773 15.7527 11.6921 15.7601 11.6174 15.7749C11.4275 15.8124 11.2469 15.8872 11.0861 15.995C11.0229 16.0373 10.9604 16.0893 10.762 16.2584C10.7401 16.277 10.7186 16.2954 10.6974 16.3135C10.2889 16.6619 9.99383 16.9136 9.67184 17.0675C8.93066 17.4217 8.06902 17.4217 7.32784 17.0675C7.00584 16.9136 6.7108 16.6619 6.30226 16.3134C6.28105 16.2954 6.25954 16.277 6.23771 16.2584C6.03931 16.0893 5.97683 16.0373 5.9136 15.995C5.7528 15.8872 5.5722 15.8124 5.38228 15.7749C5.30761 15.7601 5.22667 15.7527 4.96683 15.732C4.93823 15.7297 4.91004 15.7275 4.88226 15.7253C4.34697 15.6828 3.96039 15.6521 3.62388 15.5333C2.84929 15.2597 2.24002 14.6504 1.96643 13.8758C1.84757 13.5393 1.81689 13.1527 1.77442 12.6174C1.77221 12.5896 1.76998 12.5615 1.76769 12.5329C1.74696 12.273 1.73954 12.1921 1.72479 12.1174C1.6873 11.9275 1.61249 11.7469 1.50471 11.5861C1.46234 11.5229 1.41035 11.4604 1.24128 11.262C1.22267 11.2401 1.20432 11.2186 1.18623 11.1974C0.837764 10.7889 0.586099 10.4938 0.432197 10.1718C0.0779395 9.43066 0.0779395 8.56902 0.432197 7.82784C0.586099 7.50584 0.837762 7.2108 1.18623 6.80227C1.20432 6.78106 1.22267 6.75955 1.24128 6.73771C1.41035 6.53931 1.46234 6.47683 1.50471 6.4136C1.61249 6.2528 1.6873 6.0722 1.72479 5.88228C1.73954 5.80761 1.74696 5.72667 1.76769 5.46683C1.76998 5.43823 1.77221 5.41004 1.77442 5.38226C1.81689 4.84698 1.84757 4.46039 1.96643 4.12388C2.24002 3.34929 2.84929 2.74002 3.62388 2.46643C3.96039 2.34757 4.34698 2.31689 4.88226 2.27442C4.91004 2.27221 4.93823 2.26998 4.96683 2.26769C5.22667 2.24696 5.30761 2.23954 5.38228 2.22479C5.5722 2.1873 5.7528 2.11249 5.9136 2.00471C5.97683 1.96234 6.03931 1.91035 6.23771 1.74128C6.25955 1.72267 6.28106 1.70432 6.30226 1.68623C6.7108 1.33776 7.00584 1.0861 7.32784 0.932197ZM9.13092 2.06392C8.73182 1.87316 8.26786 1.87316 7.86876 2.06392C7.71446 2.13767 7.55183 2.26943 7.0513 2.69598C7.04308 2.70298 7.03497 2.7099 7.02697 2.71672C6.86271 2.85676 6.7428 2.95898 6.61197 3.04667C6.31333 3.24683 5.97794 3.38575 5.62524 3.45539C5.47072 3.48589 5.31365 3.4984 5.09848 3.51553C5.08799 3.51636 5.07737 3.51721 5.06661 3.51807C4.41107 3.57038 4.20289 3.59221 4.04164 3.64916C3.62455 3.79648 3.29648 4.12455 3.14916 4.54164C3.09221 4.70289 3.07038 4.91107 3.01807 5.56661C3.01721 5.57737 3.01636 5.58799 3.01553 5.59848C2.9984 5.81365 2.98589 5.97072 2.95539 6.12524C2.88575 6.47794 2.74683 6.81333 2.54667 7.11197C2.45898 7.2428 2.35676 7.36271 2.21672 7.52697C2.20989 7.53498 2.20298 7.54308 2.19598 7.5513C1.76943 8.05183 1.63767 8.21446 1.56392 8.36876C1.37316 8.76786 1.37316 9.23182 1.56392 9.63092C1.63767 9.78521 1.76943 9.94785 2.19598 10.4484C2.20298 10.4566 2.2099 10.4647 2.21672 10.4727C2.35676 10.637 2.45898 10.7569 2.54667 10.8877C2.74683 11.1863 2.88575 11.5217 2.95539 11.8744C2.98589 12.029 2.9984 12.186 3.01553 12.4012C3.01636 12.4117 3.01721 12.4223 3.01807 12.4331C3.07038 13.0886 3.09221 13.2968 3.14916 13.458C3.29648 13.8751 3.62455 14.2032 4.04164 14.3505C4.20289 14.4075 4.41107 14.4293 5.06661 14.4816L5.09847 14.4842C5.31365 14.5013 5.47072 14.5138 5.62524 14.5443C5.97794 14.6139 6.31333 14.7528 6.61197 14.953C6.7428 15.0407 6.86271 15.1429 7.02697 15.283L7.0513 15.3037C7.55183 15.7302 7.71446 15.862 7.86876 15.9358C8.26786 16.1265 8.73182 16.1265 9.13092 15.9358C9.28521 15.862 9.44785 15.7302 9.94838 15.3037L9.97272 15.2829C10.137 15.1429 10.2569 15.0407 10.3877 14.953C10.6863 14.7528 11.0217 14.6139 11.3744 14.5443C11.529 14.5138 11.686 14.5013 11.9012 14.4842L11.9331 14.4816C12.5886 14.4293 12.7968 14.4075 12.958 14.3505C13.3751 14.2032 13.7032 13.8751 13.8505 13.458C13.9075 13.2968 13.9293 13.0886 13.9816 12.4331L13.9842 12.4012C14.0013 12.186 14.0138 12.029 14.0443 11.8744C14.1139 11.5217 14.2528 11.1863 14.453 10.8877C14.5407 10.7569 14.6429 10.637 14.7829 10.4727L14.8037 10.4484C15.2302 9.94785 15.362 9.78521 15.4358 9.63092C15.6265 9.23182 15.6265 8.76786 15.4358 8.36876C15.362 8.21447 15.2302 8.05183 14.8037 7.5513L14.7829 7.52695C14.6429 7.3627 14.5407 7.2428 14.453 7.11197C14.2528 6.81333 14.1139 6.47794 14.0443 6.12524C14.0138 5.97072 14.0013 5.81365 13.9842 5.59847L13.9816 5.56661C13.9293 4.91107 13.9075 4.70289 13.8505 4.54164C13.7032 4.12455 13.3751 3.79648 12.958 3.64916C12.7968 3.59221 12.5886 3.57038 11.9331 3.51807C11.9223 3.51721 11.9117 3.51636 11.9012 3.51553C11.686 3.4984 11.529 3.48589 11.3744 3.45539C11.0217 3.38575 10.6863 3.24683 10.3877 3.04667C10.2569 2.95898 10.137 2.85675 9.9727 2.71672C9.9647 2.70989 9.95659 2.70298 9.94838 2.69598C9.44785 2.26943 9.28521 2.13767 9.13092 2.06392ZM11.8701 6.46578C12.1151 6.71071 12.1151 7.10781 11.8701 7.35274L7.68897 11.5339C7.44404 11.7788 7.04694 11.7788 6.80201 11.5339L5.12955 9.86143C4.88462 9.61651 4.88462 9.2194 5.12955 8.97448C5.37448 8.72955 5.77158 8.72955 6.01651 8.97448L7.24549 10.2035L10.9832 6.46578C11.2281 6.22085 11.6252 6.22085 11.8701 6.46578Z" fill="#363062"/>
</svg>
