<svg width="12" height="14" viewBox="0 0 12 14" fill="none" xmlns="http://www.w3.org/2000/svg">
<path fill-rule="evenodd" clip-rule="evenodd" d="M5.99984 0.333496C3.05432 0.333496 0.666504 3.00189 0.666504 6.00016C0.666504 8.97495 2.36872 12.2084 5.02455 13.4498C5.64367 13.7392 6.35601 13.7392 6.97513 13.4498C9.63095 12.2084 11.3332 8.97495 11.3332 6.00016C11.3332 3.00189 8.94536 0.333496 5.99984 0.333496ZM5.99984 7.00016C6.73622 7.00016 7.33317 6.40321 7.33317 5.66683C7.33317 4.93045 6.73622 4.3335 5.99984 4.3335C5.26346 4.3335 4.6665 4.93045 4.6665 5.66683C4.6665 6.40321 5.26346 7.00016 5.99984 7.00016Z" fill="#8683A1"/>
</svg>
