<svg width="21" height="20" viewBox="0 0 21 20" fill="none" xmlns="http://www.w3.org/2000/svg">
<path d="M2.1665 10.0002C2.1665 6.85747 2.1665 5.28612 3.14281 4.30981C4.11913 3.3335 5.69047 3.3335 8.83317 3.3335H12.1665C15.3092 3.3335 16.8805 3.3335 17.8569 4.30981C18.8332 5.28612 18.8332 6.85747 18.8332 10.0002V11.6668C18.8332 14.8095 18.8332 16.3809 17.8569 17.3572C16.8805 18.3335 15.3092 18.3335 12.1665 18.3335H8.83317C5.69047 18.3335 4.11913 18.3335 3.14281 17.3572C2.1665 16.3809 2.1665 14.8095 2.1665 11.6668V10.0002Z" stroke="#363062" stroke-width="1.5"/>
<path d="M6.3335 3.3335V2.0835" stroke="#363062" stroke-width="1.5" stroke-linecap="round"/>
<path d="M14.6665 3.3335V2.0835" stroke="#363062" stroke-width="1.5" stroke-linecap="round"/>
<circle cx="14.25" cy="13.75" r="1.25" stroke="#363062" stroke-width="1.5"/>
<path d="M2.5835 7.5H18.4168" stroke="#363062" stroke-width="1.5" stroke-linecap="round"/>
</svg>
