<svg width="125" height="124" viewBox="0 0 125 124" fill="none" xmlns="http://www.w3.org/2000/svg">
<path fill-rule="evenodd" clip-rule="evenodd" d="M47.6533 7.73517C46.1516 9.01495 45.4006 9.65489 44.5987 10.1924C42.7604 11.4245 40.6959 12.2797 38.5248 12.7083C37.5776 12.8953 36.5942 12.9738 34.6273 13.1307C29.6854 13.5251 27.2145 13.7223 25.153 14.4504C20.385 16.1345 16.6345 19.885 14.9504 24.653C14.2223 26.7145 14.0251 29.1854 13.6307 34.1273C13.4738 36.0942 13.3953 37.0776 13.2083 38.0248C12.7797 40.1959 11.9245 42.2604 10.6924 44.0987C10.1549 44.9007 9.51498 45.6515 8.23517 47.1533C5.01964 50.9266 3.41181 52.8133 2.46899 54.7858C0.288331 59.3482 0.288331 64.6521 2.46899 69.2145C3.41181 71.1871 5.0196 73.0737 8.23517 76.847C9.51483 78.3486 10.1549 79.0997 10.6924 79.9016C11.9245 81.7399 12.7797 83.8044 13.2083 85.9755C13.3953 86.9227 13.4738 87.9061 13.6307 89.873C14.0251 94.8149 14.2223 97.2858 14.9504 99.3473C16.6345 104.115 20.385 107.866 25.153 109.55C27.2145 110.278 29.6854 110.475 34.6273 110.87C36.5942 111.027 37.5776 111.105 38.5248 111.292C40.6959 111.721 42.7604 112.576 44.5987 113.808C45.4006 114.345 46.1515 114.985 47.6533 116.265C51.4266 119.481 53.3133 121.089 55.2858 122.031C59.8482 124.212 65.1521 124.212 69.7145 122.031C71.6871 121.089 73.5737 119.481 77.347 116.265C78.8488 114.985 79.5997 114.345 80.4016 113.808C82.2399 112.576 84.3044 111.721 86.4755 111.292C87.4227 111.105 88.4061 111.027 90.373 110.87C95.3149 110.475 97.7858 110.278 99.8473 109.55C104.615 107.866 108.366 104.115 110.05 99.3473C110.778 97.2858 110.975 94.8149 111.37 89.873C111.527 87.9061 111.605 86.9227 111.792 85.9755C112.221 83.8044 113.076 81.7399 114.308 79.9016C114.845 79.0997 115.485 78.3488 116.765 76.847C119.981 73.0737 121.589 71.1871 122.531 69.2145C124.712 64.6521 124.712 59.3482 122.531 54.7858C121.589 52.8133 119.981 50.9266 116.765 47.1533C115.485 45.6515 114.845 44.9006 114.308 44.0987C113.076 42.2604 112.221 40.1959 111.792 38.0248C111.605 37.0776 111.527 36.0942 111.37 34.1273C110.975 29.1854 110.778 26.7145 110.05 24.653C108.366 19.885 104.615 16.1345 99.8473 14.4504C97.7858 13.7223 95.3149 13.5251 90.373 13.1307C88.4061 12.9738 87.4227 12.8953 86.4755 12.7083C84.3044 12.2797 82.2399 11.4245 80.4016 10.1924C79.5997 9.65488 78.8488 9.01498 77.347 7.73517C73.5737 4.5196 71.6871 2.91181 69.7145 1.96899C65.1521 -0.211669 59.8482 -0.211669 55.2858 1.96899C53.3133 2.91181 51.4266 4.51963 47.6533 7.73517ZM89.47 48.8228C91.43 46.8629 91.43 43.6851 89.47 41.7252C87.51 39.7652 84.3323 39.7652 82.3723 41.7252L52.4625 71.635L42.6278 61.8004C40.6679 59.8404 37.4901 59.8404 35.5302 61.8004C33.5702 63.7604 33.5702 66.9381 35.5302 68.8981L48.9136 82.2815C50.8736 84.2415 54.0513 84.2415 56.0113 82.2815L89.47 48.8228Z" fill="#1C274C"/>
</svg>
