<svg width="21" height="21" viewBox="0 0 21 21" fill="none" xmlns="http://www.w3.org/2000/svg">
<path d="M6.375 1.5C6.375 1.08579 6.03921 0.75 5.625 0.75C5.21079 0.75 4.875 1.08579 4.875 1.5V3.07926C3.43567 3.19451 2.49077 3.47737 1.79657 4.17157C1.10237 4.86577 0.819513 5.81067 0.704257 7.25H20.5457C20.4305 5.81067 20.1476 4.86577 19.4534 4.17157C18.7592 3.47737 17.8143 3.19451 16.375 3.07926V1.5C16.375 1.08579 16.0392 0.75 15.625 0.75C15.2108 0.75 14.875 1.08579 14.875 1.5V3.0129C14.2097 3 13.464 3 12.625 3H8.625C7.78597 3 7.04027 3 6.375 3.0129V1.5Z" fill="#94A3B8"/>
<path fill-rule="evenodd" clip-rule="evenodd" d="M20.625 11V13C20.625 16.7712 20.625 18.6569 19.4534 19.8284C18.2819 21 16.3962 21 12.625 21H8.625C4.85376 21 2.96815 21 1.79657 19.8284C0.625 18.6569 0.625 16.7712 0.625 13V11C0.625 10.161 0.625 9.41527 0.637902 8.75H20.6121C20.625 9.41527 20.625 10.161 20.625 11ZM15.125 17C15.9534 17 16.625 16.3284 16.625 15.5C16.625 14.6716 15.9534 14 15.125 14C14.2966 14 13.625 14.6716 13.625 15.5C13.625 16.3284 14.2966 17 15.125 17Z" fill="#94A3B8"/>
</svg>
