<svg width="20" height="20" viewBox="0 0 20 20" fill="none" xmlns="http://www.w3.org/2000/svg">
<path d="M19.5299 8.86988L18.0099 7.34988C17.7499 7.08988 17.5399 6.57988 17.5399 6.21988V4.05988C17.5399 3.17988 16.8199 2.45988 15.9399 2.45988H13.7899C13.4299 2.45988 12.9199 2.24988 12.6599 1.98988L11.1399 0.469883C10.5199 -0.150117 9.49988 -0.150117 8.87988 0.469883L7.33988 1.98988C7.08988 2.24988 6.57988 2.45988 6.20988 2.45988H4.05988C3.17988 2.45988 2.45988 3.17988 2.45988 4.05988V6.20988C2.45988 6.56988 2.24988 7.07988 1.98988 7.33988L0.469883 8.85988C-0.150117 9.47988 -0.150117 10.4999 0.469883 11.1199L1.98988 12.6399C2.24988 12.8999 2.45988 13.4099 2.45988 13.7699V15.9199C2.45988 16.7999 3.17988 17.5199 4.05988 17.5199H6.20988C6.56988 17.5199 7.07988 17.7299 7.33988 17.9899L8.85988 19.5099C9.47988 20.1299 10.4999 20.1299 11.1199 19.5099L12.6399 17.9899C12.8999 17.7299 13.4099 17.5199 13.7699 17.5199H15.9199C16.7999 17.5199 17.5199 16.7999 17.5199 15.9199V13.7699C17.5199 13.4099 17.7299 12.8999 17.9899 12.6399L19.5099 11.1199C20.1599 10.5099 20.1599 9.48988 19.5299 8.86988ZM5.99988 6.99988C5.99988 6.44988 6.44988 5.99988 6.99988 5.99988C7.54988 5.99988 7.99988 6.44988 7.99988 6.99988C7.99988 7.54988 7.55988 7.99988 6.99988 7.99988C6.44988 7.99988 5.99988 7.54988 5.99988 6.99988ZM7.52988 13.5299C7.37988 13.6799 7.18988 13.7499 6.99988 13.7499C6.80988 13.7499 6.61988 13.6799 6.46988 13.5299C6.17988 13.2399 6.17988 12.7599 6.46988 12.4699L12.4699 6.46988C12.7599 6.17988 13.2399 6.17988 13.5299 6.46988C13.8199 6.75988 13.8199 7.23988 13.5299 7.52988L7.52988 13.5299ZM12.9999 13.9999C12.4399 13.9999 11.9899 13.5499 11.9899 12.9999C11.9899 12.4499 12.4399 11.9999 12.9899 11.9999C13.5399 11.9999 13.9899 12.4499 13.9899 12.9999C13.9899 13.5499 13.5499 13.9999 12.9999 13.9999Z" fill="#363062"/>
</svg>
