<svg width="18" height="18" viewBox="0 0 18 18" fill="none" xmlns="http://www.w3.org/2000/svg">
<path fill-rule="evenodd" clip-rule="evenodd" d="M15.9771 11.7904C18.6743 9.09318 18.6743 4.72013 15.9771 2.02291C13.2799 -0.674304 8.90682 -0.674304 6.20961 2.02291C4.41866 3.81385 3.8169 6.34366 4.40432 8.63112C4.49906 9.00004 4.41492 9.39902 4.14558 9.66835L0.433492 13.3804C0.115578 13.6984 -0.0405881 14.1435 0.00906183 14.5904L0.241128 16.679C0.26587 16.9017 0.365658 17.1093 0.524081 17.2677L0.732294 17.4759C0.890717 17.6343 1.09834 17.7341 1.32101 17.7589L3.4096 17.9909C3.85645 18.0406 4.30164 17.8844 4.61956 17.5665L5.32958 16.8565L3.58343 15.1294C3.28893 14.8382 3.28632 14.3633 3.5776 14.0688C3.86888 13.7743 4.34375 13.7717 4.63825 14.063L6.39026 15.7958L8.33192 13.8541C8.60126 13.5848 8.99996 13.5009 9.36888 13.5957C11.6563 14.1831 14.1861 13.5813 15.9771 11.7904ZM9.58579 5.58579C10.3668 4.80474 11.6332 4.80474 12.4142 5.58579C13.1953 6.36684 13.1953 7.63316 12.4142 8.41421C11.6332 9.19526 10.3668 9.19526 9.58579 8.41421C8.80474 7.63316 8.80474 6.36684 9.58579 5.58579Z" fill="#363062"/>
</svg>
