<svg width="20" height="20" viewBox="0 0 20 20" fill="none" xmlns="http://www.w3.org/2000/svg">
<path fill-rule="evenodd" clip-rule="evenodd" d="M7.70831 3.33341C7.70831 2.06776 8.73433 1.04175 9.99998 1.04175C11.2656 1.04175 12.2916 2.06776 12.2916 3.33341C12.2916 4.59907 11.2656 5.62508 9.99998 5.62508C8.73433 5.62508 7.70831 4.59907 7.70831 3.33341Z" fill="#8683A1"/>
<path d="M6.85259 9.64541L5.03985 9.04116C4.51841 8.86735 4.16669 8.37936 4.16669 7.82971C4.16669 7.01673 4.9163 6.41074 5.71123 6.58108L7.29254 6.91993C7.38047 6.93877 7.42443 6.94819 7.46803 6.95721C9.13834 7.30271 10.8617 7.30271 12.532 6.95721C12.5756 6.94819 12.6196 6.93877 12.7075 6.91993L14.2888 6.58108C15.0837 6.41074 15.8334 7.01673 15.8334 7.82971C15.8334 8.37936 15.4816 8.86735 14.9602 9.04116L13.1474 9.64541C12.9284 9.71843 12.8188 9.75494 12.7365 9.80579C12.456 9.97894 12.3039 10.3012 12.3485 10.6278C12.3617 10.7237 12.4031 10.8315 12.486 11.047L13.525 13.7484C13.8343 14.5525 13.2407 15.4168 12.3791 15.4168C11.9386 15.4168 11.5318 15.1807 11.3132 14.7982L10 12.5001L8.68683 14.7982C8.46825 15.1807 8.06146 15.4168 7.6209 15.4168C6.75934 15.4168 6.16576 14.5525 6.47505 13.7484L7.51404 11.047C7.59693 10.8315 7.63838 10.7237 7.65149 10.6278C7.69615 10.3012 7.54408 9.97894 7.26356 9.80579C7.1812 9.75494 7.07166 9.71843 6.85259 9.64541Z" fill="#8683A1"/>
<path d="M10 18.3333C14.6024 18.3333 18.3334 16.6544 18.3334 14.5833C18.3334 13.1484 16.5425 11.9017 13.9117 11.2712L14.6917 13.2993C15.3159 14.9222 14.1179 16.6664 12.3791 16.6664C11.49 16.6664 10.669 16.19 10.2279 15.418L10 15.0192L9.77213 15.418C9.331 16.19 8.51004 16.6664 7.6209 16.6664C5.88211 16.6664 4.68418 14.9222 5.30836 13.2993L6.08838 11.2712C3.45758 11.9017 1.66669 13.1484 1.66669 14.5833C1.66669 16.6544 5.39765 18.3333 10 18.3333Z" fill="#8683A1"/>
</svg>
