<svg width="17" height="20" viewBox="0 0 17 20" fill="none" xmlns="http://www.w3.org/2000/svg">
<path fill-rule="evenodd" clip-rule="evenodd" d="M10.303 3.33333C10.303 1.49238 11.8022 0 13.6515 0C15.5008 0 17 1.49238 17 3.33333C17 5.17428 15.5008 6.66667 13.6515 6.66667C12.7177 6.66667 11.8738 6.28596 11.2671 5.67347L6.63167 8.82955C6.67452 9.04248 6.69697 9.26245 6.69697 9.48718C6.69697 9.93221 6.60904 10.3576 6.44959 10.7464L11.5323 14.0858C12.1092 13.6161 12.8473 13.3333 13.6515 13.3333C15.5008 13.3333 17 14.8257 17 16.6667C17 18.5076 15.5008 20 13.6515 20C11.8022 20 10.303 18.5076 10.303 16.6667C10.303 16.1845 10.4062 15.7255 10.5917 15.3111L5.55007 11.9987C4.96196 12.5098 4.1916 12.8205 3.34848 12.8205C1.49917 12.8205 0 11.3281 0 9.48718C0 7.64623 1.49917 6.15385 3.34848 6.15385C4.4119 6.15385 5.35853 6.64725 5.97145 7.41518L10.4639 4.35642C10.3594 4.03359 10.303 3.6896 10.303 3.33333Z" fill="#363062"/>
</svg>
