<svg width="12" height="14" viewBox="0 0 12 14" fill="none" xmlns="http://www.w3.org/2000/svg">
<path fill-rule="evenodd" clip-rule="evenodd" d="M5.99984 0.333252C3.05432 0.333252 0.666504 3.00164 0.666504 5.99992C0.666504 8.9747 2.36872 12.2082 5.02455 13.4495C5.64367 13.7389 6.35601 13.7389 6.97513 13.4495C9.63095 12.2082 11.3332 8.9747 11.3332 5.99992C11.3332 3.00164 8.94536 0.333252 5.99984 0.333252ZM5.99984 6.99992C6.73622 6.99992 7.33317 6.40297 7.33317 5.66659C7.33317 4.93021 6.73622 4.33325 5.99984 4.33325C5.26346 4.33325 4.6665 4.93021 4.6665 5.66659C4.6665 6.40297 5.26346 6.99992 5.99984 6.99992Z" fill="#363062"/>
</svg>
